{"title":"Adventure Time complete seasons 1 to 5 - 1080p HD","uid":9919880,"size":70087085642,"categoryP":"video","categoryS":"hd___tv_shows","magnet":"?xt=urn:btih:a32bc5501c21386328e1a3502f3735dc916ec0ca&amp;dn=Adventure+Time+complete+seasons+1+to+5+-+1080p+HD&amp;tr=udp%3A%2F%2Ftracker.openbittorrent.com%3A80&amp;tr=udp%3A%2F%2Fopen.demonii.com%3A1337&amp;tr=udp%3A%2F%2Ftracker.coppersurfer.tk%3A6969&amp;tr=udp%3A%2F%2Fexodus.desync.com%3A6969","seeders":5,"leechers":6,"uploader":"milesrotaru","files":156,"time":1396993222,"description":"Adventure Time complete seasons 1 to 5 - 1080p HD\n\nThis release is based on 1080p downloads from iTunes. The files have not been transcoded at all, to maintain the highest quality possible except for a full bluray rip. For seasons 4 and 5, no higher quality than this is currently available anywhere. The episodes have been split from their double-feature format into individual files, with each one still including the appropriate intro and credits segments. (however, since the credits are written for double-feature broadcasts, they will sometimes mention characters that didn't appear in the individual episodes)\n\nAdditionally, custom thumbnails have been made for each episode based on the official promo art.\n\nExample: http://i.imgur.com/G8NPXOs.png\n\nAll files are encoded identically. Here is a representative example:\n\nGeneral\nComplete name                  : Adventure TimeSeason 01S01E05 - The Enchiridion!.mp4\nFormat                         : MPEG-4\nFormat profile                 : Base Media\nCodec ID                       : isom\nFile size                      : 421 MiB\nDuration                       : 11mn 53s\nOverall bit rate               : 4 947 Kbps\nWriting application            : Lavf53.31.100\nCover                          : Yes\n\nVideo\nID                             : 1\nFormat                         : AVC\nFormat/Info                    : Advanced Video Codec\nFormat profile                 : &lt;a class=&quot;__cf_email__&quot; href=&quot;/cdn-cgi/l/email-protection&quot; data-cfemail=&quot;b8f0d1dfd0f8f48c9688&quot;&gt;[email&amp;#160;protected]&lt;/a&gt;&lt;script cf-hash='f9e31' type=&quot;text/javascript&quot;&gt;\n/* &lt;![CDATA[ */!function(){try{var t=&quot;currentScript&quot;in document?document.currentScript:function(){for(var t=document.getElementsByTagName(&quot;script&quot;),e=t.length;e--;)if(t[e].getAttribute(&quot;cf-hash&quot;))return t[e]}();if(t&amp;&amp;t.previousSibling){var e,r,n,i,c=t.previousSibling,a=c.getAttribute(&quot;data-cfemail&quot;);if(a){for(e=&quot;&quot;,r=parseInt(a.substr(0,2),16),n=2;a.length-n;n+=2)i=parseInt(a.substr(n,2),16)^r,e+=String.fromCharCode(i);e=document.createTextNode(e),c.parentNode.replaceChild(e,c)}}}catch(u){}}();/* ]]&gt; */&lt;/script&gt;\nFormat settings, CABAC         : Yes\nFormat settings, ReFrames      : 4 frames\nCodec ID                       : avc1\nCodec ID/Info                  : Advanced Video Coding\nDuration                       : 11mn 53s\nBit rate                       : 4 735 Kbps\nWidth                          : 1 920 pixels\nHeight                         : 1 080 pixels\nDisplay aspect ratio           : 16:9\nFrame rate mode                : Variable\nFrame rate                     : 23.976 fps\nMinimum frame rate             : 23.952 fps\nMaximum frame rate             : 24.000 fps\nColor space                    : YUV\nChroma subsampling             : 4:2:0\nBit depth                      : 8 bits\nScan type                      : Progressive\nBits/(Pixel*Frame)             : 0.095\nStream size                    : 402 MiB (96%)\nColor primaries                : BT.709\nTransfer characteristics       : BT.709\nMatrix coefficients            : BT.709\n\nAudio\nID                             : 2\nFormat                         : AAC\nFormat/Info                    : Advanced Audio Codec\nFormat profile                 : LC\nCodec ID                       : 40\nDuration                       : 11mn 53s\nDuration_LastFrame             : -21ms\nBit rate mode                  : Constant\nBit rate                       : 155 Kbps\nChannel(s)                     : 2 channels\nChannel positions              : Front: L R\nSampling rate                  : 48.0 KHz\nCompression mode               : Lossy\nStream size                    : 13.2 MiB (3%)\nLanguage                       : English\n\nScreencaps:\n &lt;a href=&quot;\nhttp://i.imgur.com/kIJm6Nf.png&quot; rel=&quot;nofollow&quot; target=&quot;_NEW&quot;&gt;\nhttp://i.imgur.com/kIJm6Nf.png&lt;/a&gt;\n &lt;a href=&quot;\nhttp://i.imgur.com/nhHHyZ1.png&quot; rel=&quot;nofollow&quot; target=&quot;_NEW&quot;&gt;\nhttp://i.imgur.com/nhHHyZ1.png&lt;/a&gt;\n &lt;a href=&quot;\nhttp://i.imgur.com/dVcjecy.png&quot; rel=&quot;nofollow&quot; target=&quot;_NEW&quot;&gt;\nhttp://i.imgur.com/dVcjecy.png&lt;/a&gt;\n &lt;a href=&quot;\nhttp://i.imgur.com/g7527Fy.png&quot; rel=&quot;nofollow&quot; target=&quot;_NEW&quot;&gt;\nhttp://i.imgur.com/g7527Fy.png&lt;/a&gt;\n &lt;a href=&quot;\nhttp://i.imgur.com/Z75u3i7.png&quot; rel=&quot;nofollow&quot; target=&quot;_NEW&quot;&gt;\nhttp://i.imgur.com/Z75u3i7.png&lt;/a&gt;\n\n","torrent":{"xt":"urn:btih:a32bc5501c21386328e1a3502f3735dc916ec0ca","amp;dn":"Adventure+Time+complete+seasons+1+to+5+-+1080p+HD","amp;tr":["udp%3A%2F%2Ftracker.openbittorrent.com%3A80","udp%3A%2F%2Fopen.demonii.com%3A1337","udp%3A%2F%2Ftracker.coppersurfer.tk%3A6969","udp%3A%2F%2Fexodus.desync.com%3A6969"],"infoHash":"a32bc5501c21386328e1a3502f3735dc916ec0ca","infoHashBuffer":{"type":"Buffer","data":[163,43,197,80,28,33,56,99,40,225,163,80,47,55,53,220,145,110,192,202]},"announce":[],"urlList":[]}}